# VAMP hand (from "hand low poly"), generated
v -0.03809 0.01882 -0.05389
v -0.04109 0.00784 -0.01354
v -0.04014 0.02689 -0.01707
v -0.03774 0.00256 -0.05201
v -0.03405 -0.01460 -0.05159
v -0.03666 -0.00843 -0.01454
v -0.02853 -0.02877 -0.02095
v -0.02453 -0.02994 -0.05323
v -0.01913 0.04087 -0.03963
v -0.03579 0.00104 -0.07502
v -0.03239 -0.01611 -0.07467
v -0.02324 -0.03175 -0.07053
v 0.00169 0.04682 -0.04588
v -0.01129 0.03130 -0.02920
v -0.01933 0.04255 -0.01930
v -0.02051 0.03718 -0.00918
v -0.01818 0.03915 0.02911
v -0.02126 0.04668 0.02030
v -0.01541 0.04242 0.01487
v -0.00362 0.04022 -0.03496
v -0.00664 0.02912 -0.02668
v -0.00314 0.02419 -0.03182
v 0.00205 0.03086 -0.02651
v -0.00548 0.02575 -0.02342
v -0.00406 0.01968 -0.02708
v -0.03216 0.02350 0.00526
v -0.01329 0.03213 0.02914
v -0.00613 0.04162 0.03299
v -0.01170 0.04887 0.02645
v -0.01007 0.04483 0.01892
v -0.00198 0.03403 0.03102
v 0.00427 0.04350 0.03165
v -0.00203 0.05019 0.02719
v -0.00278 0.04560 0.01978
v 0.00758 0.03608 0.02786
v 0.00311 0.03636 0.02209
v 0.01939 0.04630 0.02063
v 0.01343 0.05215 0.02021
v 0.00923 0.04779 0.01593
v 0.01940 0.03889 0.01701
v 0.01162 0.03949 0.01491
v 0.02241 0.04689 0.01622
v 0.01581 0.05319 0.01691
v 0.01103 0.04845 0.01339
v 0.02172 0.03978 0.01254
v 0.01379 0.04009 0.01192
v 0.02361 0.04730 0.01241
v 0.01773 0.05389 0.01401
v 0.01251 0.04953 0.01110
v 0.02176 0.04008 0.00901
v 0.01506 0.04087 0.00913
v 0.02393 0.04833 0.00625
v 0.01874 0.05500 0.00514
v 0.01429 0.05190 0.00411
v 0.02174 0.04197 0.00058
v 0.01603 0.04232 0.00203
v 0.01551 0.05626 -0.00412
v 0.01232 0.05243 -0.00444
v 0.01308 0.04643 -0.00642
v 0.01049 0.03687 -0.03655
v 0.01356 0.03285 -0.04378
v 0.00872 0.02588 -0.04033
v 0.00995 0.02155 -0.01780
v 0.00071 0.02523 -0.01298
v -0.00404 0.02051 -0.01465
v -0.00416 0.01297 -0.01460
v 0.01016 0.01162 -0.02026
v 0.00090 0.00885 -0.01743
v -0.04034 0.03072 -0.00726
v -0.03057 0.03957 -0.01079
v -0.03750 0.02059 -0.00871
v -0.03787 0.01643 -0.00844
v -0.03780 0.00132 -0.00655
v -0.03758 -0.00242 -0.00736
v -0.03321 -0.01614 -0.01136
v -0.03240 -0.01960 -0.01164
v -0.02115 -0.03608 -0.02202
v -0.01814 -0.03771 -0.05162
v -0.02525 0.02453 0.00242
v 0.01672 0.04497 -0.00853
v 0.01553 0.05229 -0.01132
v -0.02144 0.03149 -0.01805
v 0.02039 0.05332 0.00025
v 0.02265 0.04913 0.00034
v 0.02180 0.04538 -0.00267
v 0.01555 0.04824 -0.01108
v 0.01506 0.05549 -0.00782
v -0.03980 0.02365 -0.03259
v -0.01920 -0.03566 -0.03545
v -0.02650 -0.02906 -0.03518
v -0.03541 -0.01251 -0.03352
v -0.04017 0.00515 -0.03152
v -0.01450 -0.03457 -0.02158
v -0.02068 0.02997 -0.00489
v -0.01862 -0.00760 -0.00109
v -0.03083 0.02650 0.01107
v -0.03678 0.03343 0.00127
v -0.03133 0.04140 -0.00442
v -0.02184 0.03954 -0.00243
v 0.01076 0.04961 -0.00555
v 0.01223 0.04718 0.00296
v 0.01231 0.04470 0.00956
v 0.01102 0.04408 0.01182
v 0.00955 0.04273 0.01447
v 0.00021 0.04019 0.01846
v -0.00629 0.03844 0.01904
v -0.01185 0.03584 0.01669
v 0.01449 0.05109 -0.00975
v -0.01223 0.03165 0.02109
v -0.00550 0.03385 0.02309
v -0.02086 0.03261 0.00221
v -0.02424 0.02798 0.00683
v -0.02645 0.02011 0.01626
v 0.00391 0.02391 0.02701
v 0.00821 0.01600 0.03025
v -0.02892 0.01202 0.02137
v -0.02095 0.01928 0.01214
v 0.00040 0.02205 0.01777
v 0.00933 0.00840 0.02650
v -0.02523 0.00399 0.01966
v -0.03171 0.00216 0.01117
v -0.02046 0.00547 0.01306
v -0.02283 0.00407 0.00637
v 0.01243 0.02546 0.02301
v 0.01689 0.01750 0.02502
v 0.00728 0.02292 0.01662
v 0.01659 0.00994 0.02119
v 0.00324 0.01022 0.01908
v 0.01709 0.02602 0.01654
v 0.02171 0.01832 0.01751
v 0.01043 0.02372 0.01206
v 0.02003 0.01076 0.01330
v 0.01862 0.02771 0.00588
v 0.02249 0.02025 0.00372
v 0.01200 0.02452 0.00544
v 0.01888 0.01321 0.00271
v 0.01151 0.01279 0.01088
v 0.01185 0.01531 0.00431
v 0.01863 0.02785 0.00232
v 0.02201 0.02055 -0.00059
v 0.01204 0.02428 0.00305
v 0.01823 0.01380 -0.00104
v 0.01166 0.01561 0.00179
v 0.01815 0.02831 -0.00052
v 0.02064 0.02082 -0.00350
v 0.01174 0.02512 0.00102
v 0.01636 0.01407 -0.00304
v 0.01110 0.01613 -0.00021
v 0.01296 0.02930 -0.00566
v 0.01689 0.02185 -0.00686
v 0.00877 0.02688 -0.00415
v 0.01197 0.01576 -0.00801
v 0.00781 0.01703 -0.00539
v 0.00278 0.02618 -0.01161
v 0.00669 0.02922 -0.01302
v 0.00555 0.01798 -0.01483
v 0.00270 0.01990 -0.01267
v 0.00083 0.02344 -0.01218
v 0.00588 0.02256 -0.00313
v 0.00982 0.02045 0.00067
v 0.01023 0.02007 0.00240
v 0.01031 0.01963 0.00457
v 0.01016 0.01694 0.00956
v 0.00788 0.01629 0.01419
v 0.00857 0.01161 0.01600
v 0.00170 0.01512 0.01598
v -0.01971 0.01201 0.00839
v 0.00549 0.02392 -0.01714
v 0.01147 0.01867 -0.01094
v 0.01343 0.02244 -0.00981
v 0.01184 0.02693 -0.00962
v 0.00498 0.02067 -0.01770
v 0.00519 0.02411 -0.01888
v 0.00570 0.02747 -0.01664
v -0.03874 0.00964 0.00528
v -0.03274 0.01971 0.00650
v -0.02429 0.01940 0.00529
v -0.02068 0.01196 0.00036
v -0.02712 -0.00111 0.01788
v 0.00033 0.00088 0.02571
v 0.00126 -0.00691 0.02687
v -0.03013 -0.00862 0.01736
v -0.02078 -0.00168 0.01010
v -0.00310 -0.00033 0.01650
v 0.00196 -0.01375 0.02357
v -0.02836 -0.01561 0.01267
v -0.03125 -0.01667 0.00166
v -0.02138 -0.01347 0.00687
v -0.02112 -0.01449 0.00234
v 0.00658 0.00146 0.02292
v 0.00968 -0.00606 0.02372
v 0.00188 0.00015 0.01554
v 0.00857 -0.01310 0.01997
v -0.00166 -0.01162 0.01648
v 0.01245 0.00200 0.01813
v 0.01582 -0.00533 0.01854
v 0.00612 0.00054 0.01302
v 0.01358 -0.01209 0.01460
v 0.00332 -0.01072 0.01497
v 0.01626 0.00303 0.00706
v 0.01825 -0.00376 0.00456
v 0.00926 0.00037 0.00702
v 0.01455 -0.01060 0.00416
v 0.00764 -0.00950 0.01180
v 0.00870 -0.00810 0.00559
v 0.01552 0.00344 0.00431
v 0.01731 -0.00334 0.00149
v 0.00901 0.00060 0.00501
v 0.01356 -0.00990 0.00153
v 0.00815 -0.00795 0.00355
v 0.01447 0.00391 0.00220
v 0.01586 -0.00296 -0.00037
v 0.00847 0.00119 0.00325
v 0.01161 -0.00924 0.00013
v 0.00733 -0.00705 0.00199
v 0.00942 0.00476 -0.00154
v 0.01262 -0.00227 -0.00282
v 0.00530 0.00281 -0.00018
v 0.00791 -0.00776 -0.00250
v 0.00413 -0.00630 -0.00046
v -0.00002 0.00248 -0.00320
v 0.00314 0.00519 -0.00551
v 0.00116 -0.00558 -0.00685
v -0.00071 -0.00371 -0.00418
v -0.00197 0.00000 -0.00319
v 0.00245 -0.00111 0.00004
v 0.00657 -0.00306 0.00257
v 0.00722 -0.00354 0.00402
v 0.00762 -0.00409 0.00595
v 0.00562 -0.00476 0.01052
v 0.00198 -0.00545 0.01302
v -0.00286 -0.00564 0.01417
v -0.01987 -0.00710 0.00545
v -0.00007 0.00023 -0.00826
v 0.00693 -0.00504 -0.00475
v 0.00907 -0.00161 -0.00426
v 0.00789 0.00260 -0.00373
v 0.00000 -0.00306 -0.00933
v 0.00012 0.00050 -0.01038
v 0.00127 0.00360 -0.00852
v -0.03800 -0.00948 0.00117
v -0.03155 -0.00054 0.00950
v -0.02276 -0.00084 0.00486
v -0.02415 -0.02187 0.00910
v -0.01403 -0.02300 0.01643
v -0.01593 -0.03015 0.01701
v -0.02539 -0.02918 0.00617
v -0.01551 -0.02321 0.00524
v -0.01094 -0.02416 0.00911
v -0.01575 -0.03722 0.01318
v -0.02245 -0.03612 0.00250
v -0.02220 -0.03584 -0.00464
v -0.01559 -0.03396 0.00282
v -0.01559 -0.03348 -0.00281
v -0.00892 -0.02375 0.01755
v -0.01107 -0.03065 0.01936
v -0.00717 -0.02511 0.00995
v -0.01141 -0.03772 0.01579
v -0.00366 -0.02434 0.01795
v -0.00530 -0.03097 0.02056
v -0.00370 -0.02650 0.01055
v -0.00670 -0.03783 0.01669
v 0.00418 -0.02538 0.01247
v 0.00594 -0.03164 0.01480
v 0.00075 -0.02763 0.00819
v 0.00358 -0.03827 0.01339
v -0.00597 -0.03591 0.01072
v 0.00028 -0.03647 0.00879
v 0.00515 -0.02542 0.01011
v 0.00771 -0.03171 0.01236
v 0.00159 -0.02791 0.00674
v 0.00536 -0.03813 0.01117
v 0.00155 -0.03655 0.00721
v 0.00581 -0.02552 0.00858
v 0.00820 -0.03168 0.01036
v 0.00217 -0.02818 0.00545
v 0.00539 -0.03792 0.00931
v 0.00216 -0.03666 0.00590
v 0.00501 -0.02584 0.00442
v 0.00805 -0.03188 0.00726
v 0.00197 -0.02778 0.00222
v 0.00579 -0.03768 0.00470
v 0.00218 -0.03661 0.00241
v -0.00038 -0.02927 -0.00016
v 0.00269 -0.02692 0.00083
v 0.00307 -0.03677 0.00085
v 0.00032 -0.03525 0.00012
v -0.00153 -0.03239 -0.00055
v 0.00050 -0.03190 0.00064
v 0.00153 -0.03254 0.00454
v 0.00112 -0.03235 0.00571
v 0.00031 -0.03212 0.00700
v -0.00402 -0.03136 0.00866
v -0.00643 -0.03090 0.00830
v -0.00985 -0.03662 0.01081
v -0.01052 -0.02980 0.00700
v -0.01258 -0.03574 0.00832
v -0.01207 -0.02784 0.00245
v 0.00184 -0.03209 0.00022
v 0.00624 -0.03549 0.00342
v 0.00703 -0.03198 0.00431
v 0.00561 -0.02830 0.00320
v 0.00278 -0.03477 0.00026
v 0.00277 -0.03191 0.00003
v 0.00258 -0.02881 0.00028
v -0.02977 -0.02979 -0.00406
v -0.02913 -0.01952 0.00184
v -0.01732 -0.02051 0.00183
v -0.00995 -0.02680 -0.00281
v -0.01294 -0.00615 -0.01694
v -0.01033 -0.02725 -0.01769
v -0.01284 -0.03426 -0.03578
v -0.00932 -0.00450 -0.03322
v -0.00801 -0.02652 -0.03301
v 0.00467 0.04302 -0.05448
v -0.00971 0.03553 -0.07066
v 0.00411 0.03609 -0.05208
v -0.01039 -0.03492 -0.05151
v -0.00340 0.00486 -0.04908
v 0.00135 0.02505 -0.04387
v 0.00030 -0.01063 -0.06310
v 0.00105 0.00406 -0.07786
v -0.01954 -0.03144 -0.09141
v -0.00177 -0.01538 -0.07561
v -0.00731 0.01422 -0.09789
v -0.02766 -0.00119 -0.10318
v -0.02709 -0.01878 -0.09825
v -0.01476 -0.03850 -0.12670
v -0.02447 -0.02642 -0.12848
v -0.02695 -0.00444 -0.13123
v -0.01959 0.00957 -0.13057
v -0.00016 0.01032 -0.12910
v 0.01179 -0.00561 -0.12595
v 0.00957 -0.02492 -0.12312
v 0.00478 0.02896 -0.06154
v -0.01463 0.01165 -0.01798
v -0.01510 0.02450 -0.01855
v -0.01011 0.01449 -0.03800
v -0.01296 0.02671 -0.03255
v -0.02088 0.01155 -0.10209
v -0.02982 0.02469 -0.07560
v -0.02553 0.03478 -0.06239
v -0.02125 0.04094 -0.03234
v 0.01112 0.01998 -0.01337
v 0.01170 0.01028 -0.01652
v 0.00218 0.00823 -0.01371
v 0.00214 0.02508 -0.00902
v -0.00363 0.01954 -0.00837
v 0.01107 0.01829 -0.00955
v 0.01212 0.00921 -0.01325
v 0.00331 0.00655 -0.01002
v 0.00242 0.02391 -0.00565
v -0.00314 0.01737 -0.00508
v 0.01105 0.01665 -0.00472
v 0.01293 0.00662 -0.00437
v 0.00593 0.00470 -0.00159
v 0.00593 0.02128 0.00280
v 0.00101 0.01519 0.00337
v 0.01505 0.00562 0.00571
v 0.01148 0.00495 0.00843
v 0.00723 0.01413 0.01152
v 0.00959 0.01685 0.01159
v 0.00103 0.00743 0.00438
v 0.00963 0.00885 0.01229
v -0.00238 0.00996 -0.00528
v -0.00307 0.01165 -0.00991
v 0.01396 0.01174 0.01123
v 0.00993 0.01922 0.00374
v 0.01269 0.01488 0.00038
v 0.01405 0.00963 -0.00036
v 0.01329 0.01594 0.01250
v 0.01688 0.01244 0.01135
v 0.01742 0.00828 0.00850
v -0.02636 0.01402 -0.08998
v -0.03339 0.01555 -0.07699
v 0.00080 0.00134 -0.09202
v -0.02126 -0.03270 -0.08045
v -0.02854 -0.01778 -0.08616
v -0.03035 0.00002 -0.08996
v -0.01511 -0.03620 -0.06705
v -0.01607 0.02953 -0.02545
v -0.00595 0.02488 -0.03422
v 0.00537 0.01581 -0.05189
v 0.00015 -0.00060 -0.06342
v 0.00563 0.01170 -0.06391
v -0.03287 0.02952 -0.05887
v -0.00504 -0.02844 -0.06689
v -0.00376 -0.00780 -0.04801
v -0.00987 0.02639 -0.07910
v 0.00327 0.01768 -0.07188
v -0.02250 0.03019 -0.07288
v -0.01078 0.01943 -0.08645
v 0.00116 -0.01863 -0.08769
v -0.01140 -0.03300 -0.07731
v -0.00258 -0.02062 -0.05836
v -0.00465 -0.02626 -0.04650
v -0.00789 -0.03237 -0.08758
v 0.00106 -0.03799 -0.12323
f 2 3 88 92
f 92 91 6 2
f 91 90 7 6
f 6 7 76 75
f 9 343 381 14
f 1 375 10 4
f 4 10 11 5
f 5 11 12 8
f 9 20 13 342
f 18 98 97 17
f 19 99 98 18
f 14 21 20 9
f 20 23 60 13
f 21 24 23 20
f 22 25 24 21
f 60 61 315 13
f 61 62 317 315
f 97 96 27 17
f 96 26 79 112
f 17 28 29 18
f 18 29 30 19
f 27 31 28 17
f 109 110 31 27
f 28 32 33 29
f 29 33 34 30
f 31 35 32 28
f 110 36 35 31
f 32 37 38 33
f 33 38 39 34
f 35 40 37 32
f 36 41 40 35
f 374 375 341 392
f 379 326 327 378
f 378 327 323 377
f 13 315 316 342
f 37 42 43 38
f 38 43 44 39
f 40 45 42 37
f 41 46 45 40
f 42 47 48 43
f 43 48 49 44
f 45 50 47 42
f 46 51 50 45
f 47 52 53 48
f 48 53 54 49
f 50 55 52 47
f 51 56 55 50
f 53 57 58 54
f 56 59 80 55
f 62 25 22 317
f 23 64 63 60
f 24 65 64 23
f 25 66 65 24
f 60 63 67 61
f 61 67 68 62
f 62 68 66 25
f 3 71 26 69
f 3 69 70 15
f 2 72 71 3
f 71 72 176 26
f 175 176 72 2
f 2 73 121 175
f 74 73 2 6
f 241 242 74 6
f 73 74 242 121
f 6 75 187 241
f 75 76 307 187
f 76 7 306 307
f 90 89 77 7
f 7 77 252 306
f 177 79 26 176
f 59 56 101 100
f 101 56 51 102
f 102 51 46 103
f 103 46 41 104
f 104 41 36 105
f 105 36 110 106
f 106 110 109 107
f 109 112 111 107
f 58 57 108 100
f 85 84 52 55
f 83 53 52 84
f 86 80 108 81
f 87 83 84 81
f 81 84 85 86
f 85 55 80 86
f 83 87 57 53
f 79 177 178 94
f 242 243 123 121
f 89 90 8 78
f 90 91 5 8
f 91 92 4 5
f 89 312 93 77
f 77 93 254 252
f 78 318 312 89
f 308 189 187 307
f 70 16 82 15
f 16 94 337 82
f 94 178 336 337
f 178 123 243 95
f 96 97 69 26
f 97 98 70 69
f 70 98 99 16
f 58 100 101 54
f 54 101 102 49
f 49 102 103 44
f 44 103 104 39
f 39 104 105 34
f 34 105 106 30
f 30 106 107 19
f 107 111 99 19
f 59 100 108 80
f 87 81 108 57
f 96 112 109 27
f 16 99 111 94
f 94 111 112 79
f 114 113 116 115
f 118 117 113 114
f 116 120 119 115
f 120 121 123 122
f 115 125 124 114
f 114 124 126 118
f 119 127 125 115
f 128 165 127 119
f 125 130 129 124
f 124 129 131 126
f 127 132 130 125
f 165 137 132 127
f 130 134 133 129
f 129 133 135 131
f 132 136 134 130
f 137 138 136 132
f 134 140 139 133
f 133 139 141 135
f 136 142 140 134
f 138 143 142 136
f 140 145 144 139
f 139 144 146 141
f 142 147 145 140
f 143 148 147 142
f 145 150 149 144
f 144 149 151 146
f 147 152 150 145
f 148 153 152 147
f 149 155 154 151
f 153 157 156 152
f 157 153 159 158
f 159 153 148 160
f 160 148 143 161
f 161 143 138 162
f 162 138 137 163
f 163 137 165 164
f 164 165 128 166
f 128 122 167 166
f 154 155 168 158
f 169 170 150 152
f 171 149 150 170
f 172 156 168 173
f 174 171 170 173
f 173 170 169 172
f 169 152 156 172
f 171 174 155 149
f 120 116 175 121
f 116 113 176 175
f 176 113 117 177
f 154 158 159 151
f 151 159 160 146
f 146 160 161 141
f 141 161 162 135
f 135 162 163 131
f 131 163 164 126
f 126 164 166 118
f 166 167 117 118
f 157 158 168 156
f 174 173 168 155
f 120 122 128 119
f 177 117 167 178
f 178 167 122 123
f 180 179 182 181
f 184 183 179 180
f 182 186 185 181
f 186 187 189 188
f 181 191 190 180
f 180 190 192 184
f 185 193 191 181
f 194 199 193 185
f 191 196 195 190
f 190 195 197 192
f 193 198 196 191
f 199 204 198 193
f 196 201 200 195
f 195 200 202 197
f 198 203 201 196
f 204 205 203 198
f 201 207 206 200
f 200 206 208 202
f 203 209 207 201
f 205 210 209 203
f 207 212 211 206
f 206 211 213 208
f 209 214 212 207
f 210 215 214 209
f 212 217 216 211
f 211 216 218 213
f 214 219 217 212
f 215 220 219 214
f 216 222 221 218
f 220 224 223 219
f 224 220 226 225
f 226 220 215 227
f 227 215 210 228
f 228 210 205 229
f 229 205 204 230
f 230 204 199 231
f 231 199 194 232
f 194 188 233 232
f 221 222 234 225
f 235 236 217 219
f 237 216 217 236
f 238 223 234 239
f 240 237 236 239
f 239 236 235 238
f 235 219 223 238
f 237 240 222 216
f 186 182 241 187
f 182 179 242 241
f 242 179 183 243
f 221 225 226 218
f 218 226 227 213
f 213 227 228 208
f 208 228 229 202
f 202 229 230 197
f 197 230 231 192
f 192 231 232 184
f 232 233 183 184
f 224 225 234 223
f 240 239 234 222
f 186 188 194 185
f 243 183 233 95
f 95 233 188 189
f 245 244 247 246
f 249 248 244 245
f 247 251 250 246
f 251 252 254 253
f 246 256 255 245
f 245 255 257 249
f 250 258 256 246
f 297 295 258 250
f 256 260 259 255
f 255 259 261 257
f 258 262 260 256
f 295 267 262 258
f 260 264 263 259
f 259 263 265 261
f 262 266 264 260
f 267 268 266 262
f 264 270 269 263
f 263 269 271 265
f 266 272 270 264
f 268 273 272 266
f 270 275 274 269
f 269 274 276 271
f 272 277 275 270
f 273 278 277 272
f 275 280 279 274
f 274 279 281 276
f 277 282 280 275
f 278 283 282 277
f 279 285 284 281
f 283 287 286 282
f 287 283 289 288
f 289 283 278 290
f 290 278 273 291
f 291 273 268 292
f 292 268 267 293
f 293 267 295 294
f 294 295 297 296
f 297 253 298 296
f 284 285 299 288
f 300 301 280 282
f 302 279 280 301
f 303 286 299 304
f 305 302 301 304
f 304 301 300 303
f 300 282 286 303
f 302 305 285 279
f 251 247 306 252
f 247 244 307 306
f 307 244 248 308
f 284 288 289 281
f 281 289 290 276
f 276 290 291 271
f 271 291 292 265
f 265 292 293 261
f 261 293 294 257
f 257 294 296 249
f 296 298 248 249
f 287 288 299 286
f 305 304 299 285
f 251 253 297 250
f 308 248 298 309
f 309 298 253 254
f 308 309 95 189
f 95 310 336 178
f 309 311 310 95
f 311 309 254 93
f 339 382 14 381
f 311 314 313 310
f 93 312 314 311
f 382 320 317 22
f 320 382 339 338
f 321 384 319 388
f 335 390 389 316
f 319 383 320 338
f 377 323 397 394
f 334 393 397 398
f 323 327 329 328
f 327 326 330 329
f 326 340 331 330
f 340 325 332 331
f 325 376 333 332
f 376 393 334 333
f 336 338 339 337
f 336 310 313 338
f 381 82 337 339
f 88 1 4 92
f 386 1 88 343
f 343 88 3 15
f 325 340 374 392
f 63 344 345 67
f 67 345 346 68
f 64 347 344 63
f 65 348 347 64
f 344 349 350 345
f 345 350 351 346
f 347 352 349 344
f 348 353 352 347
f 349 354 355 350
f 350 355 356 351
f 352 357 354 349
f 353 358 357 352
f 355 359 360 356
f 358 361 362 357
f 361 358 363 364
f 363 358 353 365
f 365 353 348 366
f 366 348 65 66
f 360 359 367 364
f 368 369 354 357
f 370 355 354 369
f 371 362 367 372
f 373 370 369 372
f 372 369 368 371
f 368 357 362 371
f 370 373 359 355
f 360 364 363 356
f 356 363 365 351
f 351 365 366 346
f 346 366 66 68
f 361 364 367 362
f 373 372 367 359
f 326 379 374 340
f 1 386 341 375
f 325 392 322 376
f 324 387 380 394
f 377 12 11 378
f 378 11 10 379
f 379 10 375 374
f 78 8 12 380
f 14 382 22 21
f 343 15 82 381
f 319 384 385 383
f 9 342 386 343
f 318 387 395 396
f 384 322 390 385
f 386 342 391 341
f 318 78 380 387
f 319 338 313 388
f 388 313 314 396
f 396 314 312 318
f 320 383 335 317
f 383 385 390 335
f 316 315 317 335
f 390 322 392 389
f 391 342 316 389
f 391 389 392 341
f 380 12 377 394
f 324 322 384 321
f 376 322 324 393
f 387 324 321 395
f 395 321 388 396
f 393 324 394 397
f 397 323 328 398
