# VAMP hand (from "hand low poly"), generated
v 0.05389 -0.04409 0.01882
v 0.01354 -0.04709 0.00784
v 0.01707 -0.04614 0.02689
v 0.05201 -0.04374 0.00256
v 0.05159 -0.04005 -0.01460
v 0.01454 -0.04266 -0.00843
v 0.02095 -0.03453 -0.02877
v 0.05323 -0.03053 -0.02994
v 0.04177 -0.02725 0.04022
v 0.07502 -0.04179 0.00104
v 0.07467 -0.03839 -0.01611
v 0.07053 -0.02924 -0.03175
v 0.05410 -0.01133 0.04800
v 0.03259 -0.01568 0.03529
v 0.02073 -0.01956 0.04452
v 0.00918 -0.02651 0.03718
v -0.02708 -0.02988 0.03915
v -0.01863 -0.03009 0.04668
v -0.01452 -0.02325 0.04242
v 0.04227 -0.01334 0.04391
v 0.03338 -0.00899 0.03529
v 0.03649 -0.00688 0.02984
v 0.03913 -0.00253 0.03983
v 0.03264 -0.00432 0.03307
v 0.03446 -0.00340 0.02728
v -0.00454 -0.03832 0.02350
v -0.02809 -0.02563 0.03213
v -0.03347 -0.02108 0.04162
v -0.02599 -0.02332 0.04887
v -0.01942 -0.01937 0.04483
v -0.03298 -0.01695 0.03403
v -0.03588 -0.01233 0.04350
v -0.02946 -0.01544 0.05019
v -0.02241 -0.01313 0.04560
v -0.03391 -0.00813 0.03608
v -0.02681 -0.00908 0.03636
v -0.03407 0.00411 0.04630
v -0.03027 -0.00005 0.05215
v -0.02438 -0.00113 0.04779
v -0.03123 0.00602 0.03889
v -0.02487 0.00133 0.03949
v -0.03255 0.00860 0.04689
v -0.02895 0.00344 0.05319
v -0.02329 0.00170 0.04845
v -0.02937 0.01017 0.03978
v -0.02376 0.00471 0.04009
v -0.03056 0.01157 0.04730
v -0.02786 0.00645 0.05389
v -0.02233 0.00420 0.04953
v -0.02688 0.01228 0.04008
v -0.02243 0.00737 0.04087
v -0.02654 0.01549 0.04833
v -0.02208 0.01262 0.05500
v -0.01822 0.01019 0.05190
v -0.02132 0.01776 0.04197
v -0.01800 0.01292 0.04232
v -0.01366 0.01731 0.05626
v -0.01086 0.01570 0.05243
v -0.01039 0.01766 0.04643
v 0.05035 -0.00164 0.04469
v 0.05426 0.00266 0.03837
v 0.04689 0.00165 0.03121
v 0.03706 0.01179 0.03592
v 0.02765 0.00607 0.03689
v 0.02654 0.00360 0.03054
v 0.02680 0.00661 0.02363
v 0.03969 0.01466 0.02646
v 0.03223 0.01050 0.02115
v 0.00726 -0.04634 0.03072
v 0.01079 -0.03657 0.03957
v 0.00871 -0.04350 0.02059
v 0.00844 -0.04387 0.01643
v 0.00655 -0.04380 0.00132
v 0.00736 -0.04358 -0.00242
v 0.01136 -0.03921 -0.01614
v 0.01164 -0.03840 -0.01960
v 0.02202 -0.02715 -0.03608
v 0.05162 -0.02414 -0.03771
v -0.00218 -0.03129 0.02453
v -0.01178 0.02163 0.04497
v -0.00863 0.02289 0.05229
v 0.01883 -0.01554 0.03360
v -0.02010 0.01710 0.05332
v -0.02186 0.01852 0.04913
v -0.01943 0.02011 0.04538
v -0.00886 0.02274 0.04824
v -0.01100 0.02000 0.05549
v 0.03259 -0.04580 0.02365
v 0.03545 -0.02520 -0.03566
v 0.03518 -0.03250 -0.02906
v 0.03352 -0.04141 -0.01251
v 0.03152 -0.04617 0.00515
v 0.02158 -0.02050 -0.03457
v 0.00489 -0.02668 0.02997
v 0.00109 -0.02462 -0.00760
v -0.00961 -0.03755 0.02650
v -0.00107 -0.04279 0.03343
v 0.00442 -0.03733 0.04140
v 0.00243 -0.02784 0.03954
v -0.00915 0.01551 0.04961
v -0.01593 0.00957 0.04718
v -0.02100 0.00500 0.04470
v -0.02201 0.00260 0.04408
v -0.02334 -0.00010 0.04273
v -0.02233 -0.00998 0.04019
v -0.02058 -0.01598 0.03844
v -0.01692 -0.02036 0.03584
v -0.00918 0.02103 0.05109
v -0.02093 -0.02202 0.03165
v -0.02457 -0.01675 0.03385
v -0.00207 -0.02690 0.03261
v -0.00619 -0.03057 0.02798
v -0.01446 -0.03411 0.02011
v -0.03156 -0.01059 0.02391
v -0.03631 -0.00872 0.01600
v -0.01873 -0.03754 0.01202
v -0.01126 -0.02804 0.01928
v -0.02178 -0.00953 0.02205
v -0.03353 -0.00618 0.00840
v -0.01759 -0.03366 0.00399
v -0.00966 -0.03842 0.00216
v -0.01216 -0.02773 0.00547
v -0.00584 -0.02912 0.00407
v -0.03208 -0.00219 0.02546
v -0.03618 0.00012 0.01750
v -0.02395 -0.00308 0.02292
v -0.03286 0.00180 0.00994
v -0.02417 -0.00764 0.01022
v -0.02942 0.00459 0.02602
v -0.03307 0.00741 0.01832
v -0.02186 0.00198 0.02372
v -0.02881 0.00853 0.01076
v -0.02250 0.01205 0.02771
v -0.02385 0.01613 0.02025
v -0.01763 0.00754 0.02452
v -0.02055 0.01437 0.01321
v -0.02155 0.00355 0.01279
v -0.01667 0.00827 0.01531
v -0.02011 0.01447 0.02785
v -0.02081 0.01876 0.02055
v -0.01586 0.00937 0.02428
v -0.01766 0.01663 0.01380
v -0.01465 0.01010 0.01561
v -0.01792 0.01620 0.02831
v -0.01805 0.01999 0.02082
v -0.01415 0.01077 0.02512
v -0.01498 0.01698 0.01407
v -0.01277 0.01138 0.01613
v -0.01073 0.01701 0.02930
v -0.01312 0.02036 0.02185
v -0.00834 0.01325 0.02688
v -0.00864 0.01802 0.01576
v -0.00720 0.01337 0.01703
v -0.00166 0.01249 0.02618
v -0.00239 0.01657 0.02922
v -0.00025 0.01649 0.01798
v -0.00070 0.01294 0.01990
v -0.00019 0.01108 0.02344
v -0.00670 0.01067 0.02256
v -0.01248 0.00977 0.02045
v -0.01410 0.00858 0.02007
v -0.01584 0.00690 0.01963
v -0.01968 0.00327 0.01694
v -0.02219 -0.00132 0.01629
v -0.02409 -0.00171 0.01161
v -0.02072 -0.00759 0.01512
v -0.00791 -0.02625 0.01201
v 0.00177 0.01760 0.02392
v -0.00634 0.01952 0.01867
v -0.00841 0.02030 0.02244
v -0.00750 0.01899 0.02693
v 0.00252 0.01744 0.02067
v 0.00343 0.01821 0.02411
v 0.00124 0.01753 0.02747
v -0.00443 -0.04488 0.00964
v -0.00559 -0.03898 0.01971
v -0.00480 -0.03049 0.01940
v -0.00033 -0.02668 0.01196
v -0.01583 -0.03507 -0.00111
v -0.02897 -0.01290 0.00088
v -0.03037 -0.01264 -0.00691
v -0.01513 -0.03786 -0.00862
v -0.00941 -0.02754 -0.00168
v -0.01926 -0.01217 -0.00033
v -0.02766 -0.01067 -0.01375
v -0.01115 -0.03534 -0.01561
v -0.00144 -0.03727 -0.01667
v -0.00638 -0.02774 -0.01347
v -0.00218 -0.02716 -0.01449
v -0.02910 -0.00666 0.00146
v -0.03128 -0.00462 -0.00606
v -0.02041 -0.00724 0.00015
v -0.02749 -0.00370 -0.01310
v -0.01979 -0.01085 -0.01162
v -0.02800 0.00025 0.00200
v -0.03026 0.00258 -0.00533
v -0.02026 -0.00221 0.00054
v -0.02576 0.00301 -0.01209
v -0.02056 -0.00569 -0.01072
v -0.02170 0.00959 0.00303
v -0.02133 0.01267 -0.00376
v -0.01711 0.00423 0.00037
v -0.01843 0.01034 -0.01060
v -0.02005 -0.00021 -0.00950
v -0.01562 0.00481 -0.00810
v -0.01922 0.01093 0.00344
v -0.01858 0.01418 -0.00334
v -0.01535 0.00552 0.00060
v -0.01585 0.01161 -0.00990
v -0.01363 0.00600 -0.00795
v -0.01699 0.01172 0.00391
v -0.01628 0.01460 -0.00296
v -0.01359 0.00652 0.00119
v -0.01340 0.01142 -0.00924
v -0.01179 0.00676 -0.00705
v -0.01047 0.01149 0.00476
v -0.01215 0.01452 -0.00227
v -0.00836 0.00761 0.00281
v -0.00847 0.01152 -0.00776
v -0.00711 0.00725 -0.00630
v -0.00318 0.00633 0.00248
v -0.00438 0.00991 0.00519
v -0.00304 0.00893 -0.00558
v -0.00272 0.00620 -0.00371
v -0.00221 0.00474 0.00000
v -0.00645 0.00546 -0.00111
v -0.01180 0.00559 -0.00306
v -0.01343 0.00482 -0.00354
v -0.01525 0.00360 -0.00409
v -0.01788 -0.00128 -0.00476
v -0.01820 -0.00601 -0.00545
v -0.01718 -0.01110 -0.00564
v -0.00515 -0.02610 -0.00710
v -0.00216 0.00849 0.00023
v -0.00687 0.01235 -0.00504
v -0.00851 0.01353 -0.00161
v -0.00788 0.01240 0.00260
v -0.00187 0.00900 -0.00306
v -0.00140 0.00956 0.00050
v -0.00258 0.00977 0.00360
v -0.00098 -0.04401 -0.00948
v -0.00822 -0.03807 -0.00054
v -0.00446 -0.02893 -0.00084
v -0.00824 -0.03072 -0.02187
v -0.01623 -0.02233 -0.02300
v -0.01643 -0.02427 -0.03015
v -0.00554 -0.03165 -0.02918
v -0.00525 -0.02174 -0.02321
v -0.00979 -0.01771 -0.02416
v -0.01288 -0.02320 -0.03722
v -0.00230 -0.02850 -0.03612
v 0.00464 -0.02820 -0.03584
v -0.00283 -0.02165 -0.03396
v 0.00281 -0.02159 -0.03348
v -0.01844 -0.01789 -0.02375
v -0.01959 -0.02043 -0.03065
v -0.01160 -0.01411 -0.02511
v -0.01616 -0.01970 -0.03772
v -0.02041 -0.01322 -0.02434
v -0.02229 -0.01565 -0.03097
v -0.01342 -0.01071 -0.02650
v -0.01825 -0.01556 -0.03783
v -0.01880 -0.00368 -0.02538
v -0.02170 -0.00329 -0.03164
v -0.01330 -0.00504 -0.02763
v -0.01930 -0.00469 -0.03827
v -0.01276 -0.01308 -0.03591
v -0.01360 -0.00584 -0.03647
v -0.01728 -0.00149 -0.02542
v -0.02056 -0.00047 -0.03171
v -0.01249 -0.00332 -0.02791
v -0.01829 -0.00189 -0.03813
v -0.01288 -0.00362 -0.03655
v -0.01636 0.00007 -0.02552
v -0.01918 0.00112 -0.03168
v -0.01173 -0.00180 -0.02818
v -0.01674 -0.00078 -0.03792
v -0.01210 -0.00212 -0.03666
v -0.01245 0.00238 -0.02584
v -0.01657 0.00302 -0.03188
v -0.00892 0.00088 -0.02778
v -0.01315 0.00291 -0.03768
v -0.00920 0.00098 -0.03661
v -0.00507 0.00235 -0.02927
v -0.00775 0.00420 -0.02692
v -0.00798 0.00454 -0.03677
v -0.00570 0.00280 -0.03525
v -0.00391 0.00196 -0.03239
v -0.00681 0.00037 -0.03190
v -0.01059 -0.00206 -0.03254
v -0.01133 -0.00335 -0.03235
v -0.01200 -0.00502 -0.03212
v -0.01144 -0.01053 -0.03136
v -0.01016 -0.01300 -0.03090
v -0.01173 -0.01696 -0.03662
v -0.00772 -0.01697 -0.02980
v -0.00869 -0.01921 -0.03574
v -0.00266 -0.01812 -0.02784
v -0.00635 0.00461 -0.03209
v -0.01232 0.00448 -0.03549
v -0.01355 0.00441 -0.03198
v -0.01176 0.00412 -0.02830
v -0.00702 0.00529 -0.03477
v -0.00667 0.00570 -0.03191
v -0.00692 0.00510 -0.02881
v 0.00406 -0.03577 -0.02979
v -0.00162 -0.03515 -0.01952
v -0.00179 -0.02334 -0.02051
v 0.00281 -0.01595 -0.02680
v 0.01694 -0.01894 -0.00615
v 0.01769 -0.01633 -0.02725
v 0.03578 -0.01884 -0.03426
v 0.03322 -0.01532 -0.00450
v 0.03301 -0.01401 -0.02652
v 0.05885 -0.00486 0.04286
v 0.07066 -0.01571 0.03553
v 0.05293 -0.00248 0.03627
v 0.05151 -0.01639 -0.03492
v 0.04908 -0.00940 0.00486
v 0.04387 -0.00465 0.02505
v 0.06310 -0.00570 -0.01063
v 0.07786 -0.00495 0.00406
v 0.09141 -0.02554 -0.03144
v 0.07561 -0.00777 -0.01538
v 0.09789 -0.01331 0.01422
v 0.10318 -0.03366 -0.00119
v 0.09825 -0.03309 -0.01878
v 0.12670 -0.02076 -0.03850
v 0.12848 -0.03047 -0.02642
v 0.13123 -0.03295 -0.00444
v 0.13057 -0.02559 0.00957
v 0.12910 -0.00616 0.01032
v 0.12595 0.00579 -0.00561
v 0.12312 0.00357 -0.02492
v 0.06154 -0.00122 0.02896
v 0.01798 -0.02063 0.01165
v 0.01855 -0.02110 0.02450
v 0.03800 -0.01611 0.01449
v 0.03255 -0.01896 0.02671
v 0.10209 -0.02688 0.01155
v 0.07560 -0.03582 0.02469
v 0.06239 -0.03153 0.03478
v 0.03435 -0.02880 0.04134
v 0.03418 0.01568 0.03578
v 0.03758 0.01836 0.02653
v 0.02994 0.01370 0.02178
v 0.02523 0.00932 0.03804
v 0.02168 0.00769 0.03104
v 0.03111 0.01839 0.03497
v 0.03520 0.02087 0.02635
v 0.02765 0.01720 0.02138
v 0.02269 0.01183 0.03773
v 0.01938 0.01070 0.02988
v 0.02722 0.02165 0.03441
v 0.02851 0.02731 0.02602
v 0.02233 0.02444 0.02228
v 0.01791 0.02004 0.03826
v 0.01493 0.01920 0.03105
v 0.02152 0.03471 0.02785
v 0.01728 0.03383 0.02649
v 0.01186 0.02862 0.03392
v 0.01302 0.02928 0.03727
v 0.01450 0.02293 0.02418
v 0.01287 0.03295 0.03013
v 0.02034 0.01417 0.02336
v 0.02365 0.01048 0.02374
v 0.01607 0.03439 0.03412
v 0.01952 0.02433 0.03801
v 0.02407 0.02633 0.03439
v 0.02572 0.02907 0.02995
v 0.01443 0.03287 0.03795
v 0.01759 0.03632 0.03583
v 0.02045 0.03688 0.03168
v 0.08998 -0.03236 0.01402
v 0.07699 -0.03939 0.01555
v 0.09202 -0.00520 0.00134
v 0.08045 -0.02726 -0.03270
v 0.08616 -0.03454 -0.01778
v 0.08996 -0.03635 0.00002
v 0.06705 -0.02111 -0.03620
v 0.02725 -0.01790 0.03351
v 0.03556 -0.01100 0.02801
v 0.05189 -0.00063 0.01581
v 0.06342 -0.00585 -0.00060
v 0.06391 -0.00037 0.01170
v 0.05887 -0.03887 0.02952
v 0.06689 -0.01104 -0.02844
v 0.04801 -0.00976 -0.00780
v 0.07910 -0.01587 0.02639
v 0.07188 -0.00273 0.01768
v 0.07288 -0.02850 0.03019
v 0.08645 -0.01678 0.01943
v 0.08769 -0.00484 -0.01863
v 0.07731 -0.01740 -0.03300
v 0.05836 -0.00858 -0.02062
v 0.04650 -0.01065 -0.02626
v 0.08758 -0.01389 -0.03237
v 0.12323 -0.00494 -0.03799
f 92 88 3 2
f 2 6 91 92
f 6 7 90 91
f 75 76 7 6
f 14 381 343 9
f 4 10 375 1
f 5 11 10 4
f 8 12 11 5
f 342 13 20 9
f 17 97 98 18
f 18 98 99 19
f 9 20 21 14
f 13 60 23 20
f 20 23 24 21
f 21 24 25 22
f 13 315 61 60
f 315 317 62 61
f 17 27 96 97
f 112 79 26 96
f 18 29 28 17
f 19 30 29 18
f 17 28 31 27
f 27 31 110 109
f 29 33 32 28
f 30 34 33 29
f 28 32 35 31
f 31 35 36 110
f 33 38 37 32
f 34 39 38 33
f 32 37 40 35
f 35 40 41 36
f 392 341 375 374
f 378 327 326 379
f 377 323 327 378
f 342 316 315 13
f 38 43 42 37
f 39 44 43 38
f 37 42 45 40
f 40 45 46 41
f 43 48 47 42
f 44 49 48 43
f 42 47 50 45
f 45 50 51 46
f 48 53 52 47
f 49 54 53 48
f 47 52 55 50
f 50 55 56 51
f 54 58 57 53
f 55 80 59 56
f 317 22 25 62
f 60 63 64 23
f 23 64 65 24
f 24 65 66 25
f 61 67 63 60
f 62 68 67 61
f 25 66 68 62
f 69 26 71 3
f 15 70 69 3
f 3 71 72 2
f 26 176 72 71
f 2 72 176 175
f 175 121 73 2
f 6 2 73 74
f 6 74 242 241
f 121 242 74 73
f 241 187 75 6
f 187 307 76 75
f 307 306 7 76
f 7 77 89 90
f 306 252 77 7
f 176 26 79 177
f 100 101 56 59
f 102 51 56 101
f 103 46 51 102
f 104 41 46 103
f 105 36 41 104
f 106 110 36 105
f 107 109 110 106
f 107 111 112 109
f 100 108 57 58
f 55 52 84 85
f 84 52 53 83
f 81 108 80 86
f 81 84 83 87
f 86 85 84 81
f 86 80 55 85
f 53 57 87 83
f 94 178 177 79
f 121 123 243 242
f 78 8 90 89
f 8 5 91 90
f 5 4 92 91
f 77 93 312 89
f 252 254 93 77
f 89 312 318 78
f 307 187 189 308
f 15 82 16 70
f 82 337 94 16
f 337 336 178 94
f 95 243 123 178
f 26 69 97 96
f 69 70 98 97
f 16 99 98 70
f 54 101 100 58
f 49 102 101 54
f 44 103 102 49
f 39 104 103 44
f 34 105 104 39
f 30 106 105 34
f 19 107 106 30
f 19 99 111 107
f 80 108 100 59
f 57 108 81 87
f 27 109 112 96
f 94 111 99 16
f 79 112 111 94
f 115 116 113 114
f 114 113 117 118
f 115 119 120 116
f 122 123 121 120
f 114 124 125 115
f 118 126 124 114
f 115 125 127 119
f 119 127 165 128
f 124 129 130 125
f 126 131 129 124
f 125 130 132 127
f 127 132 137 165
f 129 133 134 130
f 131 135 133 129
f 130 134 136 132
f 132 136 138 137
f 133 139 140 134
f 135 141 139 133
f 134 140 142 136
f 136 142 143 138
f 139 144 145 140
f 141 146 144 139
f 140 145 147 142
f 142 147 148 143
f 144 149 150 145
f 146 151 149 144
f 145 150 152 147
f 147 152 153 148
f 151 154 155 149
f 152 156 157 153
f 158 159 153 157
f 160 148 153 159
f 161 143 148 160
f 162 138 143 161
f 163 137 138 162
f 164 165 137 163
f 166 128 165 164
f 166 167 122 128
f 158 168 155 154
f 152 150 170 169
f 170 150 149 171
f 173 168 156 172
f 173 170 171 174
f 172 169 170 173
f 172 156 152 169
f 149 155 174 171
f 121 175 116 120
f 175 176 113 116
f 177 117 113 176
f 151 159 158 154
f 146 160 159 151
f 141 161 160 146
f 135 162 161 141
f 131 163 162 135
f 126 164 163 131
f 118 166 164 126
f 118 117 167 166
f 156 168 158 157
f 155 168 173 174
f 119 128 122 120
f 178 167 117 177
f 123 122 167 178
f 181 182 179 180
f 180 179 183 184
f 181 185 186 182
f 188 189 187 186
f 180 190 191 181
f 184 192 190 180
f 181 191 193 185
f 185 193 199 194
f 190 195 196 191
f 192 197 195 190
f 191 196 198 193
f 193 198 204 199
f 195 200 201 196
f 197 202 200 195
f 196 201 203 198
f 198 203 205 204
f 200 206 207 201
f 202 208 206 200
f 201 207 209 203
f 203 209 210 205
f 206 211 212 207
f 208 213 211 206
f 207 212 214 209
f 209 214 215 210
f 211 216 217 212
f 213 218 216 211
f 212 217 219 214
f 214 219 220 215
f 218 221 222 216
f 219 223 224 220
f 225 226 220 224
f 227 215 220 226
f 228 210 215 227
f 229 205 210 228
f 230 204 205 229
f 231 199 204 230
f 232 194 199 231
f 232 233 188 194
f 225 234 222 221
f 219 217 236 235
f 236 217 216 237
f 239 234 223 238
f 239 236 237 240
f 238 235 236 239
f 238 223 219 235
f 216 222 240 237
f 187 241 182 186
f 241 242 179 182
f 243 183 179 242
f 218 226 225 221
f 213 227 226 218
f 208 228 227 213
f 202 229 228 208
f 197 230 229 202
f 192 231 230 197
f 184 232 231 192
f 184 183 233 232
f 223 234 225 224
f 222 234 239 240
f 185 194 188 186
f 95 233 183 243
f 189 188 233 95
f 246 247 244 245
f 245 244 248 249
f 246 250 251 247
f 253 254 252 251
f 245 255 256 246
f 249 257 255 245
f 246 256 258 250
f 250 258 295 297
f 255 259 260 256
f 257 261 259 255
f 256 260 262 258
f 258 262 267 295
f 259 263 264 260
f 261 265 263 259
f 260 264 266 262
f 262 266 268 267
f 263 269 270 264
f 265 271 269 263
f 264 270 272 266
f 266 272 273 268
f 269 274 275 270
f 271 276 274 269
f 270 275 277 272
f 272 277 278 273
f 274 279 280 275
f 276 281 279 274
f 275 280 282 277
f 277 282 283 278
f 281 284 285 279
f 282 286 287 283
f 288 289 283 287
f 290 278 283 289
f 291 273 278 290
f 292 268 273 291
f 293 267 268 292
f 294 295 267 293
f 296 297 295 294
f 296 298 253 297
f 288 299 285 284
f 282 280 301 300
f 301 280 279 302
f 304 299 286 303
f 304 301 302 305
f 303 300 301 304
f 303 286 282 300
f 279 285 305 302
f 252 306 247 251
f 306 307 244 247
f 308 248 244 307
f 281 289 288 284
f 276 290 289 281
f 271 291 290 276
f 265 292 291 271
f 261 293 292 265
f 257 294 293 261
f 249 296 294 257
f 249 248 298 296
f 286 299 288 287
f 285 299 304 305
f 250 297 253 251
f 309 298 248 308
f 254 253 298 309
f 189 95 309 308
f 178 336 310 95
f 95 310 311 309
f 93 254 309 311
f 381 14 382 339
f 310 313 314 311
f 311 314 312 93
f 22 317 320 382
f 338 339 382 320
f 388 319 384 321
f 316 389 390 335
f 338 320 383 319
f 394 397 323 377
f 398 397 393 334
f 328 329 327 323
f 329 330 326 327
f 330 331 340 326
f 331 332 325 340
f 332 333 376 325
f 333 334 393 376
f 337 339 338 336
f 338 313 310 336
f 339 337 82 381
f 92 4 1 88
f 343 88 1 386
f 15 3 88 343
f 392 374 340 325
f 67 345 344 63
f 68 346 345 67
f 63 344 347 64
f 64 347 348 65
f 345 350 349 344
f 346 351 350 345
f 344 349 352 347
f 347 352 353 348
f 350 355 354 349
f 351 356 355 350
f 349 354 357 352
f 352 357 358 353
f 356 360 359 355
f 357 362 361 358
f 364 363 358 361
f 365 353 358 363
f 366 348 353 365
f 66 65 348 366
f 364 367 359 360
f 357 354 369 368
f 369 354 355 370
f 372 367 362 371
f 372 369 370 373
f 371 368 369 372
f 371 362 357 368
f 355 359 373 370
f 356 363 364 360
f 351 365 363 356
f 346 366 365 351
f 68 66 366 346
f 362 367 364 361
f 359 367 372 373
f 340 374 379 326
f 375 341 386 1
f 376 322 392 325
f 394 380 387 324
f 378 11 12 377
f 379 10 11 378
f 374 375 10 379
f 380 12 8 78
f 21 22 382 14
f 381 82 15 343
f 383 385 384 319
f 343 386 342 9
f 396 395 387 318
f 385 390 322 384
f 341 391 342 386
f 387 380 78 318
f 388 313 338 319
f 396 314 313 388
f 318 312 314 396
f 317 335 383 320
f 335 390 385 383
f 335 317 315 316
f 389 392 322 390
f 389 316 342 391
f 341 392 389 391
f 394 377 12 380
f 321 384 322 324
f 393 324 322 376
f 395 321 324 387
f 396 388 321 395
f 397 394 324 393
f 398 328 323 397
